<?xml version="1.0" encoding="utf-8"?>
<!-- Generator: Adobe Illustrator 26.5.0, SVG Export Plug-In . SVG Version: 6.00 Build 0)  -->
<svg version="1.1" id="Layer_1" xmlns="http://www.w3.org/2000/svg" xmlns:xlink="http://www.w3.org/1999/xlink" x="0px" y="0px"
	 viewBox="0 0 595.2756 841.8898" style="enable-background:new 0 0 595.2756 841.8898;" xml:space="preserve">
<polygon style="fill:#FFCA3B;" points="295.4037,566.21 332.1118,515.4966 315.205,494.6443 252.0577,522.2692 199.6773,517.7059 
	60.7788,480.5359 165.7303,449.3672 226.5188,398.8691 164.8574,374.0576 234.1871,356.3132 197.2314,306.6933 285.0706,319.8061 
	256.4404,260.6165 323.2837,296.0269 330.7572,244.9533 388.6421,292.3894 405.4626,262.806 438.6043,326.7699 484.83,314.4185 
	463.3503,384.4985 509.2267,414.4588 449.3273,445.6716 457.0625,528.3651 427.4911,479.9079 399.5518,558.4596 400.7875,518.0087 
	387.8926,498.672 358.8003,537.8911 "/>
<polygon style="fill:#F47C5F;" points="376.8664,302.7817 329.4727,264.0271 327.4957,299.841 324.2082,317.2383 295.8723,300.5991 
	300.6873,327.7962 232.1988,327.9149 246.8446,357.5437 210.4674,372.2968 245.2352,395.9011 220.2845,429.3221 148.9053,469.7602 
	80.2446,479.0215 228.6637,512.3937 290.7722,483.3185 311.4551,482.0183 329.8689,503.7555 322.358,525.3954 300.3271,551.1141 
	339.7384,529.7191 379.2022,477.2625 390.7193,497.4709 394.2313,512.1382 411.0877,465.734 424.4319,476.9313 429.2545,437.7464 
	478.1311,413.5062 443.3478,387.1986 454.588,334.1351 426.8286,337.1622 400.3874,292.2238 "/>
<polygon style="fill:#753726;" points="303.7268,362.833 352.0623,346.9451 356.6071,359.0199 "/>
<polygon style="fill:#753726;" points="391.6462,354.8891 377.2909,362.1643 430.8581,387.8729 "/>
<polygon style="fill:#753726;" points="370.5516,414.5415 351.8977,405.6248 327.5,412.4524 363.4203,382.7882 382.1181,401.3933 
	385.7141,432.353 "/>
</svg>
